# xmcd
#
# Track frame offsets: 
#        150
#        14061
#        30664
#        37458
#        51243
#        69884
#        90026
#        106530
#        117362
#        131082
#        142923
#        153001
#        162814
#        172709
#        181867
#
# Disc length: 2582 seconds
#
# Revision: 0
# Processed by: cddbd v1.5.2PL0 Copyright (c) Steve Scherf et al.
# Submitted via: ExactAudioCopyFreeDBPlugin 1.0
#
DISCID=b10a140f
DTITLE=Various Artist - Musik Für Unterwegs - Trucker and Country - CD2
DYEAR=1900
DGENRE=Country
TTITLE0=Juice Newton - Listen To The Radio
TTITLE1=America - A Horse With No Name
TTITLE2=Waylon Jennings - It's So Easy (To Fall In Love)
TTITLE3=Anne Murray - The Last Thing On My Mind
TTITLE4=Kris Kristofferson - A Moment Of Forever
TTITLE5=Emmylou Harris - Love Hurts
TTITLE6=Gordon Lightfoot - Diddley Dee, Diddley Dee
TTITLE7=Patsy Cline - I Don't Wanna
TTITLE8=Eddie Rabbitt - Drivin' My Life Away
TTITLE9=Sandy Posey - Bring Him Home Safely To Me
TTITLE10=Conway Twitty - It's Only Make Believe
TTITLE11=Ned Miller - From A Jack To A King
TTITLE12=Hank Locklin - Please Help Me, I'm Falling
TTITLE13=Frankie Laine - Rawhide
TTITLE14=Johnny Cash and June Carter - Jackson (Live)
EXTD=
EXTT0=
EXTT1=
EXTT2=
EXTT3=
EXTT4=
EXTT5=
EXTT6=
EXTT7=
EXTT8=
EXTT9=
EXTT10=
EXTT11=
EXTT12=
EXTT13=
EXTT14=
PLAYORDER=
